<?xml version="1.0" encoding="UTF-8" standalone="no"?>
<!DOCTYPE svg PUBLIC "-//W3C//DTD SVG 1.1//EN" "http://www.w3.org/Graphics/SVG/1.1/DTD/svg11.dtd">
<svg width="100%" height="100%" viewBox="0 0 400 400" version="1.1" xmlns="http://www.w3.org/2000/svg" xmlns:xlink="http://www.w3.org/1999/xlink" xml:space="preserve" xmlns:serif="http://www.serif.com/" style="fill-rule:evenodd;clip-rule:evenodd;stroke-linejoin:round;stroke-miterlimit:2;">
    <g id="Outer-Ring" serif:id="Outer Ring" transform="matrix(1.73113,0,0,1.73113,-159.669,-212.616)">
        <path d="M207.766,122.82C271.529,122.82 323.298,174.588 323.298,238.351C323.298,302.115 271.529,353.883 207.766,353.883C144.002,353.883 92.234,302.115 92.234,238.351C92.234,174.588 144.002,122.82 207.766,122.82ZM207.766,134.854C264.887,134.854 311.263,181.23 311.263,238.351C311.263,295.473 264.887,341.848 207.766,341.848C150.644,341.848 104.269,295.473 104.269,238.351C104.269,181.23 150.644,134.854 207.766,134.854Z"/>
    </g>
    <g id="G-Base" serif:id="G Base" transform="matrix(1.01263,0,0,1.00049,-0.65201,0.424433)">
        <path d="M208.025,134.51L134.234,134.51C93.048,134.51 68.545,140.194 53.751,154.011C28.401,177.686 28.384,214.176 51.776,239.832C76.998,267.498 125.738,252.84 125.738,252.84L193.46,184.158L99.738,184.158L81.198,202.67C81.198,202.67 102.958,199.478 109.075,205.669C113.605,210.254 120.431,222.547 109.075,229.463C92.048,239.832 58.688,232.087 58.688,199.478C58.688,164.495 99,160 115,160C144.287,160 183.585,159.246 183.585,159.246L208.025,134.51Z"/>
    </g>
    <g id="V">
        <g transform="matrix(1.49464,0,-0.460598,0.460598,109.764,73.807)">
            <rect x="141.458" y="132.855" width="30.108" height="173.477"/>
            <rect x="141.458" y="132.855" width="30.108" height="173.477"/>
        </g>
        <g transform="matrix(2.59071,0,-0.183424,0.183424,-169.107,197.631)">
            <rect x="141.458" y="132.855" width="30.108" height="173.477"/>
            <rect x="141.458" y="132.855" width="30.108" height="173.477"/>
        </g>
        <path d="M375,135L347,135L315.18,166.82L362.18,166.82L375,154L375,135Z"/>
        <path d="M375,135L347,135L315.18,166.82L362.18,166.82L375,154L375,135Z"/>
        <g transform="matrix(1.82679,0,-0.142663,0.142663,-30.4591,116.046)">
            <rect x="141.458" y="132.855" width="30.108" height="173.477"/>
            <rect x="141.458" y="132.855" width="30.108" height="173.477"/>
        </g>
        <g transform="matrix(1.49464,0,-0.684783,0.684783,209.549,44.0228)">
            <rect x="141.458" y="132.855" width="30.108" height="173.477"/>
            <rect x="141.458" y="132.855" width="30.108" height="173.477"/>
        </g>
    </g>
</svg>
